<svg id="Layer_1" enable-background="new 0 0 512.476 512.476" height="512" viewBox="0 0 512.476 512.476" width="512" xmlns="http://www.w3.org/2000/svg"><g><path d="m371.602 325.516c9.652 0 9.668-15 0-15-9.652 0-9.668 15 0 15z"/><path d="m362.455 216.03c-9.652 0-9.668 15 0 15 9.652 0 9.668-15 0-15z"/><path d="m331.216 210.739c9.652 0 9.668-15 0-15-9.651 0-9.667 15 0 15z"/><path d="m488.811 478.594c-.641-2.641-2.363-5.102-5.063-5.996l-41.292-13.667-39.25-107.995c9.472-5.224 17.126-13.593 21.539-23.767 5.431-12.52 5.513-26.75.226-39.043-3.833-8.907-17.611-2.981-13.779 5.928 3.661 8.51 3.585 18.404-.207 27.146-3.787 8.73-10.95 15.546-19.658 18.71-9.192 3.064-19.383 2.272-27.975-2.173-8.308-4.299-14.344-11.53-16.996-20.362l-40.911-136.242 49.499-17.842 38.117 88.613c3.747 8.711 17.603 2.964 13.779-5.928l-78.618-182.766c-1.567-3.644-5.702-5.435-9.433-4.092l-43.706 15.753c-.046-.017-.088-.039-.134-.056l-52.706-19.093c-21.148-7.663-36.869 22.253-18.394 35.186-9.538 15.306-31.689 53.221-52.475 106.07-7.415 18.852-25.807 29.821-41.115 41.762-14.937 11.67-26.545 30.885-34.177 47.919 0 0-33.385 90.178-49.685 134.751-9.146 25.013 4.438 53.653 29.343 62.675l70.21 25.434c24.982 9.05 53.761-4.228 62.897-29.211l4.125-11.28c3.33-9.107-10.759-14.261-14.087-5.152l-4.126 11.28c-6.426 17.574-26.029 26.666-43.7 20.26l-70.211-25.434c-17.31-6.27-26.751-25.954-20.364-43.419l2.008-5.492 23.087 8.363c37.053 13.421 79.484-6.134 93.032-43.198 13.575-37.122-6.387-79.26-43.396-92.667l-21.968-7.957c6.83-13.092 15.816-25.085 26.523-35.266 14.945-11.658 32.208-22.557 41.618-39.514l60.071 21.761c-3.726 18.986 2.451 38.37 6.371 56.866 2.261 20.366-.263 41.295-7.304 60.549l-27.929 76.371c-3.33 9.108 10.757 14.259 14.088 5.152l27.929-76.371c7.877-21.542 10.672-44.969 8.081-67.748-2.352-20.411-11.734-38.029-4.64-58.982 18.213-53.794 25.731-97.017 28.308-114.84 1.046.092 2.093.098 3.14.019l62.484 208.082c3.831 12.757 12.521 23.188 24.469 29.37 9.969 5.159 21.557 6.851 32.599 4.86l39.308 108.155-22.183 36.192c-4.617 5.716 1.443 14.26 8.379 11.766l69.419-24.998c3.465-1.25 5.511-4.825 4.833-8.442zm-378.704-170.923c29.289 10.609 45.176 43.992 34.416 73.412-10.86 29.697-43.983 45.062-73.834 34.246l-23.044-8.348c13.12-35.877 25.676-72.015 39.407-107.662zm238.898-158.185-47.882 17.259-17.978-59.871c4.73-5.336 6.247-13.643 3.716-20.303l30.372-10.947zm-138.375-76.653c1.755-2.881 3.924-3.883 6.504-3.007l52.707 19.093c6.172 2.236 2.648 11.659-3.479 9.438-17.569-6.364-35.138-12.729-52.707-19.093-2.793-1.31-3.801-3.454-3.025-6.431zm35.42 69.092-44.942-16.281c7.361-13.544 13.367-23.432 16.8-28.886l33.931 12.292c-.895 6.389-2.682 17.803-5.789 32.875zm-20.382 76.236-58.188-21.079c9.031-22.403 18.306-42.012 26.551-58.048l48.792 17.675c-4.043 17.561-9.603 38.516-17.155 61.452zm204.003 272.486 10.266-16.749 18.886 6.251z"/><path d="m268.78 43.727c4.142 0 7.5-3.357 7.5-7.5v-28.954c0-9.697-15-9.697-15 0v28.954c0 4.143 3.358 7.5 7.5 7.5z"/><path d="m291.582 49.615c3.684 2.498 7.194 2.077 10.531-1.262l16.046-20.415c5.992-7.624-5.802-16.896-11.793-9.27l-16.046 20.415c-2.559 3.257-1.994 7.972 1.262 10.532z"/><path d="m236.307 48.353c6.158 7.835 17.676-1.784 11.793-9.27l-16.046-20.415c-5.994-7.623-17.785 1.645-11.793 9.27z"/><path d="m59.677 263.717c3.594 1.39 8.296-.65 9.704-4.282.06-.153 6.14-15.532 20.143-25.479 7.906-5.615-.784-17.849-8.687-12.229-17.633 12.526-25.131 31.484-25.441 32.286-1.498 3.862.419 8.206 4.281 9.704z"/><path d="m43.15 236.799c3.784 2.028 7.213 1.169 10.289-2.576 1.029-1.716 3.841-5.825 5.969-7.572 7.494-6.154-2.025-17.747-9.52-11.592-4.69 3.852-8.855 10.685-9.314 11.451-2.131 3.553-.977 8.159 2.576 10.289z"/><path d="m429.649 361.692c3.468 3.083 7.001 3.238 10.597.466.609-.559 14.978-13.928 19.379-36.281.8-4.064-1.846-8.008-5.91-8.808-4.064-.803-8.007 1.846-8.808 5.909-3.398 17.262-14.587 27.924-14.813 28.137-3.034 2.8-3.236 7.529-.445 10.577z"/><path d="m459.033 365.779c3.726 2.332 7.214 1.754 10.464-1.735.261-.365 6.428-9.038 9.532-18.013 1.354-3.915-.723-8.186-4.637-9.539-3.915-1.355-8.185.723-9.54 4.637-2.38 6.884-7.507 14.12-7.559 14.192-2.404 3.368-1.626 8.049 1.74 10.458z"/></g></svg>