<svg id="Layer_1_1_" enable-background="new 0 0 64 64" height="512" viewBox="0 0 64 64" width="512" xmlns="http://www.w3.org/2000/svg"><path d="m60.85791 12.48633c-2.03613-3.39844-10.01758-4.18066-15.8457-4.75195-1.92822-.18848-4.11328-.40332-4.56494-.62891-1.08643-.54297-1.44434-3.00098-1.44727-4.10645-.00146-.55175-.44873-.99902-1-.99902h-12c-.55225 0-1 .44727-1 1 0 1.10352-.35352 3.55859-1.44727 4.10547-.45166.22559-2.63672.44043-4.56494.62891-5.82812.57128-13.80957 1.35351-15.84521 4.75097-3.0542 5.08984-.50879 24.87402-.146 27.55859l-.99561 20.9082c-.0127.27344.08643.54004.27539.73828.18848.19728.4502.30958.72364.30958h7c.5 0 .92334-.36914.99072-.86523.26038-1.909 2.2298-16.3927 2.83362-22.04651.49091 2.38477.93677 4.3576 1.22693 5.22815.77832 2.33398.94873 12.83496.94873 16.68359 0 .55273.44775 1 1 1h30c.55225 0 1-.44727 1-1 0-3.84863.17041-14.34863.94873-16.68359.29016-.87054.73602-2.84338 1.22693-5.22815.60382 5.65381 2.57324 20.13751 2.83362 22.04651.06738.49609.49072.86523.99072.86523h7c.27344 0 .53516-.1123.72363-.30957.18896-.19824.28809-.46484.27539-.73828l-.99561-20.9082c.3628-2.68457 2.90821-22.46875-.1455-27.55762zm-.90674 47.51367h-5.07812c-.90039-6.63574-2.87305-21.48535-2.87305-23 0-1.03326-.24451-3.65234-.40045-5.22113.73535-3.92828 1.33099-7.2973 1.38531-7.60504l-1.96973-.34766c-.01453.08246-.72906 4.12317-1.56879 8.5752l-4.94634 6.59863h-8.26416l-1.78857-.89453-.89453 1.78906 2 1c.13867.06934.29199.10547.44726.10547h9c.31494 0 .61133-.14844.80029-.40039l2.7793-3.70758c-.61322 3.08923-1.1922 5.78314-1.52832 6.79156-.89697 2.69141-1.0293 12.88672-1.04834 16.31641h-28.00586c-.01904-3.42969-.15137-13.625-1.04834-16.31641-.33612-1.00842-.9151-3.70233-1.52832-6.79156l2.7793 3.70758c.18896.25195.48535.40039.80029.40039h9c.15527 0 .30859-.03613.44727-.10547l2-1-.89453-1.78906-1.78858.89453h-8.26416l-4.94635-6.59863c-.83972-4.45203-1.55426-8.49274-1.56879-8.5752l-1.96973.34766c.05432.30774.64996 3.67676 1.38531 7.60504-.15593 1.56879-.40044 4.18787-.40044 5.22113 0 1.51465-1.97266 16.36426-2.87305 23h-5.07812l.9502-19.95215c.00293-.06152 0-.12207-.0083-.18262-.8208-6.02344-2.44531-22.49707-.13281-26.35156 1.51807-2.53418 9.53516-3.31934 14.3252-3.78906 2.94482-.28809 4.51611-.45605 5.26416-.83008 1.83739-.91894 2.3535-3.45117 2.49754-4.89453h10.11035c.14404 1.44336.66016 3.97559 2.49756 4.89453.74805.37402 2.31934.54199 5.26416.83008 4.79004.46973 12.80713 1.25488 14.32568 3.79004 2.31201 3.85352.6875 20.32715-.1333 26.35059-.0083.06055-.01123.12109-.0083.18262z"/><path d="m20 35h2v2h-2z"/><path d="m42 35h2v2h-2z"/><path d="m25.23682 43.35352c-.18994.22461-.27148.52051-.22314.81055l1 6c.08007.48241.49755.83593.98632.83593h2v6c0 .4043.24365.76953.61719.92383.12402.05176.2539.07617.38281.07617.26025 0 .51562-.10156.70703-.29297l9-9c.28613-.28613.37158-.71582.2168-1.08984s-.51953-.61719-.92383-.61719h-2.38184l1.27637-2.55273c.15479-.30957.13818-.67773-.04395-.97266s-.5039-.47461-.85058-.47461h-11c-.29395 0-.57324.12891-.76318.35352zm10.14502 1.64648-1.27637 2.55273c-.15479.30957-.13818.67773.04395.97266s.5039.47461.85058.47461h1.58594l-5.58594 5.58594v-4.58594c0-.55273-.44775-1-1-1h-2.15283l-.6665-4z"/></svg>