<svg id="_x31_-outline-expand" enable-background="new 0 0 64 64" height="512" viewBox="0 0 64 64" width="512" xmlns="http://www.w3.org/2000/svg"><path d="m48 30h-8v-4c0-2.201-1.439-4.054-3.419-4.719 1.479-1.285 2.419-3.173 2.419-5.281 0-3.86-3.14-7-7-7s-7 3.14-7 7c0 2.108.94 3.996 2.419 5.281-1.98.665-3.419 2.518-3.419 4.719v14c0 1.13.391 2.162 1.026 3h-3.026v-23c0-1.654-1.346-3-3-3-1.302 0-2.402.839-2.816 2h-13.184c-.552 0-1 .448-1 1v4c0 .552.448 1 1 1h1v21c0 1.654 1.346 3 3 3h2.069c.453 3.612 3.319 6.477 6.931 6.931v5.069c0 .552.448 1 1 1h14c.336 0 .65-.169.835-.45.185-.28.217-.635.084-.944l-2.402-5.606h.483c3.72 0 7.008-1.861 9-4.695v10.695c0 .552.448 1 1 1h6c.552 0 1-.448 1-1v-20c0-1.125-.374-2.164-1.002-3h2.002c.552 0 1-.448 1-1v-6c0-.552-.448-1-1-1zm-21-14c0-2.757 2.243-5 5-5s5 2.243 5 5c0 .85-.233 1.639-.609 2.341-.911-.844-2.117-1.341-3.391-1.341v2c.803 0 1.563.325 2.117.878-.858.691-1.933 1.122-3.117 1.122-2.757 0-5-2.243-5-5zm-8 3c.551 0 1 .449 1 1v23h-2v-23c0-.551.449-1 1-1zm-15 2h12v2h-11-1zm12 4v18h-10v-18zm-4.91 24h3.91c.551 0 1 .449 1 1v3.91c-2.507-.424-4.486-2.403-4.91-4.91zm18.91 4h-2c-.336 0-.65.169-.835.45-.185.28-.217.635-.084.944l2.402 5.606h-11.483v-10c0-1.654-1.346-3-3-3h-8c-.551 0-1-.449-1-1v-1h32.945c-.499 4.494-4.32 8-8.945 8zm17-17h-13v-9h-2v10c0 .552.448 1 1 1h9c1.654 0 3 1.346 3 3v19h-4v-16c0-.552-.448-1-1-1h-11c-1.654 0-3-1.346-3-3v-14c0-1.654 1.346-3 3-3h6c1.654 0 3 1.346 3 3v5c0 .552.448 1 1 1h8z"/><path d="m53 17v-3h-2v2h-2c-.552 0-1 .448-1 1v2h-2c-.552 0-1 .448-1 1v2h-2v2h3c.552 0 1-.448 1-1v-2h2c.552 0 1-.448 1-1v-2h2c.552 0 1-.448 1-1z"/><path d="m60 17v2h-2c-.552 0-1 .448-1 1v2h-2c-.552 0-1 .448-1 1v2h-2v2h3c.552 0 1-.448 1-1v-2h2c.552 0 1-.448 1-1v-2h2c.552 0 1-.448 1-1v-3z"/><path d="m46 11v-2h2c.552 0 1-.448 1-1v-2h2c.552 0 1-.448 1-1v-3h-2v2h-2c-.552 0-1 .448-1 1v2h-2c-.552 0-1 .448-1 1v2h-2v2h3c.552 0 1-.448 1-1z"/></svg>