<svg id="Capa_1" enable-background="new 0 0 512.112 512.112" height="512" viewBox="0 0 512.112 512.112" width="512" xmlns="http://www.w3.org/2000/svg"><g><g id="Page-1_5_"><g id="_x30_06---Energy-Drink-Can" transform="translate(0 -1)"><path id="Shape_16_" d="m136.862 497.752c8.096 9.742 20.11 15.372 32.777 15.36h172.834c12.667.012 24.681-5.618 32.777-15.36l24.525-29.431c6.378-7.668 9.873-17.325 9.882-27.298v-299.52c-.006-9.977-3.502-19.637-9.882-27.307l-27.085-32.538c-6.469-7.78-16.062-12.28-26.18-12.279h-17.067l22.827-25.677c9.404-10.611 8.426-26.837-2.185-36.241s-26.837-8.426-36.241 2.185l-53.086 59.733h-95.113c-10.133-.013-19.745 4.488-26.223 12.279l-27.085 32.503c-6.38 7.67-9.875 17.33-9.882 27.307v299.52c.006 9.977 3.502 19.637 9.882 27.307zm255.394-360.107c.205 1.264.316 2.542.333 3.823v299.52c-.017 1.281-.128 2.559-.333 3.823h-272.401c-.203-1.253-.315-2.519-.333-3.789v-299.52c.015-1.292.126-2.581.333-3.857zm-30.122 349.184c-4.848 5.835-12.04 9.213-19.627 9.216h-172.868c-7.587-.003-14.779-3.381-19.627-9.216l-20.804-24.917h253.696zm-35.576-465.749c3.125-3.558 8.542-3.91 12.1-.785s3.91 8.542.785 12.1l-32.853 36.983h-22.989zm-174.02 71.509c3.237-3.897 8.041-6.149 13.107-6.144h180.864c5.066-.005 9.871 2.247 13.107 6.144l23.288 27.989h-253.696z"/><path id="Path_36_" clip-rule="evenodd" d="m179.256 171.778h93.867c4.713 0 8.533-3.821 8.533-8.533 0-4.713-3.821-8.533-8.533-8.533h-93.867c-4.713 0-8.533 3.821-8.533 8.533-.001 4.713 3.82 8.533 8.533 8.533z" fill-rule="evenodd"/><circle id="Oval" clip-rule="evenodd" cx="145.122" cy="163.245" fill-rule="evenodd" r="8.533"/><path id="Shape_15_" d="m153.656 291.245c0 56.554 45.846 102.4 102.4 102.4s102.4-45.846 102.4-102.4-45.846-102.4-102.4-102.4c-56.529.061-102.339 45.871-102.4 102.4zm187.733 0c0 47.128-38.205 85.333-85.333 85.333s-85.333-38.205-85.333-85.333 38.205-85.333 85.333-85.333c47.107.051 85.281 38.226 85.333 85.333z"/><path id="Shape_14_" d="m210.172 269.656c-5.113 4.942-6.704 12.497-4.019 19.081 2.746 6.716 9.299 11.087 16.555 11.042h7.748v42.112c-.056 7.113 4.236 13.54 10.829 16.213 6.701 2.846 14.458 1.356 19.627-3.772l41.011-41.472c5.113-4.941 6.704-12.497 4.019-19.081-2.736-6.72-9.282-11.101-16.538-11.068h-7.748v-42.111c.056-7.113-4.236-13.54-10.829-16.213-6.702-2.834-14.452-1.345-19.627 3.772zm53.402-29.517c.377.048.731.209 1.015.461v50.645c0 4.713 3.82 8.533 8.533 8.533h16.282l.512.947-41.011 41.472c-.264.264-.668.326-.998.154-.384-.162-.384-.316-.384-.461v-50.645c0-4.713-3.821-8.533-8.533-8.533h-16.282l-.512-.947 41.011-41.472c.092-.105.227-.161.367-.154z"/></g></g></g></svg>